<svg xmlns:mydata="http://www.w3.org/2000/svg" mydata:contrastcolor="B2B4B2" mydata:template="Contrast" mydata:presentation="2.5" mydata:layouttype="undefined" mydata:specialfontid="undefined" mydata:id1="620" mydata:id2="622" mydata:companyname="ABerisha" mydata:companytagline="" version="1.1" xmlns="http://www.w3.org/2000/svg" xmlns:xlink="http://www.w3.org/1999/xlink" viewBox="0 0 550 660">
	<g fill="#fff" fill-rule="none" stroke="none" stroke-width="1" stroke-linecap="butt">
	<g>
		<path d="M67.80445,355l29.56074,-57.19883l30.46198,57.19883h-15.44128l-14.54004,-28.05867l-14.6602,28.05867z" data-paper-data="{&quot;glyphName&quot;:&quot;A&quot;,&quot;glyphIndex&quot;:0,&quot;firstGlyphOfWord&quot;:true,&quot;word&quot;:1}" id="element-id-89220"></path>
		<path d="M183.16343,338.2369c0,7.20994 -6.00828,16.7631 -17.84459,16.7631h-30.7624v-12.61739h30.7624c2.22306,0 3.90538,-1.98273 3.90538,-4.14571c0,-2.1029 -1.7424,-4.14571 -3.90538,-4.14571h-30.7624v-12.55731h30.7624c2.22306,0 3.90538,-2.1029 3.90538,-4.26588c0,-2.1029 -1.68232,-4.08563 -3.90538,-4.08563h-30.7624v-12.61739h30.7624c11.83631,0 17.84459,9.49308 17.84459,16.70302c0,3.72513 -1.20166,7.3301 -3.8453,10.51449c2.70373,3.12431 3.8453,6.78936 3.8453,10.45441z" data-paper-data="{&quot;glyphName&quot;:&quot;B&quot;,&quot;glyphIndex&quot;:1,&quot;word&quot;:1}" id="element-id-61503"></path>
		<path d="M229.84777,313.18237h-39.95507v-12.61739h39.95507zM229.84777,334.09118h-39.95507v-12.55731h39.95507zM229.84777,355h-39.95507v-12.61739h39.95507z" data-paper-data="{&quot;glyphName&quot;:&quot;E&quot;,&quot;glyphIndex&quot;:2,&quot;word&quot;:1}" id="element-id-64483"></path>
		<path d="M250.75659,325.55943h2.28315c3.18439,0.06008 6.42886,0.12017 9.61325,0.12017c3.54489,0 6.00828,-3.24447 6.00828,-6.30869c0,-3.00414 -2.52348,-6.18853 -6.00828,-6.18853h-26.07594v-12.61739h26.07594c13.33838,0 19.94749,10.57457 19.94749,18.80592c0,5.9482 -3.12431,12.61739 -9.85358,16.34252l11.35565,19.28658h-15.74169zM236.57705,315.88609h13.93921v39.11391h-13.93921z" data-paper-data="{&quot;glyphName&quot;:&quot;R&quot;,&quot;glyphIndex&quot;:3,&quot;word&quot;:1}" id="element-id-2953"></path>
		<path d="M290.83182,355v-54.43502h13.93921v54.43502z" data-paper-data="{&quot;glyphName&quot;:&quot;I&quot;,&quot;glyphIndex&quot;:4,&quot;word&quot;:1}" id="element-id-87566"></path><path d="M344.84626,300.56498l0.12017,12.61739h-15.68161c-2.34323,0 -3.8453,1.86257 -3.8453,4.08563c0,2.28315 1.56215,4.26588 3.8453,4.26588h12.97789c5.34737,0 9.61325,1.98273 12.73755,4.98687c3.4848,3.36464 5.10704,7.57043 5.10704,11.71615c0,7.3301 -6.00828,16.7631 -17.84459,16.7631h-18.14501v-12.79764l18.14501,0.18025c2.28315,0 3.90538,-1.92265 3.90538,-4.14571c0,-1.08149 -0.48066,-2.1029 -1.3819,-3.00414c-0.84116,-0.78108 -1.50207,-1.14157 -2.52348,-1.14157h-12.97789c-5.34737,0 -9.67333,-2.04282 -12.73755,-5.04696c-3.4848,-3.36464 -5.04696,-7.63052 -5.04696,-11.77623c0,-7.20994 5.9482,-16.70302 17.78451,-16.70302z" data-paper-data="{&quot;glyphName&quot;:&quot;S&quot;,&quot;glyphIndex&quot;:5,&quot;word&quot;:1}" id="element-id-27776"></path>
		<path d="M380.77578,300.56498v20.90882h34.66778v33.52621h-13.93921v-20.90882h-20.72857v20.90882h-13.93921v-54.43502z" data-paper-data="{&quot;glyphName&quot;:&quot;H&quot;,&quot;glyphIndex&quot;:6,&quot;word&quot;:1}" id="element-id-25358"></path><path d="M422.17283,355l29.56074,-57.19883l30.46198,57.19883h-15.44128l-14.54004,-28.05867l-14.6602,28.05867z" data-paper-data="{&quot;glyphName&quot;:&quot;A&quot;,&quot;glyphIndex&quot;:7,&quot;lastGlyphOfWord&quot;:true,&quot;word&quot;:1}" id="element-id-39602"></path>
	</g>
	</g>
</svg>